<?xml version="1.0" encoding="iso-8859-1"?>
<svg height="30" width="30" version="1.1" id="Capa_1" xmlns="http://www.w3.org/2000/svg" xmlns:xlink="http://www.w3.org/1999/xlink" 
	 viewBox="0 0 45.478 45.478" xml:space="preserve">
<g>
	<g>
		<path style="fill:#fff;" d="M41.834,5.872l-5.174-4.18c-3.273-2.644-8.087-2.132-10.731,1.14L11.455,20.748
			c-2.644,3.273-2.268,7.977,0.836,10.485c3.105,2.508,7.782,1.886,10.426-1.387l10.025-12.409c0.612-0.756,0.493-1.866-0.262-2.476
			c-0.757-0.611-1.865-0.494-2.476,0.263l-10.025,12.41c-1.424,1.762-3.88,2.147-5.475,0.86c-1.594-1.288-1.733-3.77-0.311-5.532
			L28.669,5.045c1.424-1.762,4.016-2.038,5.777-0.615l5.175,4.181c1.762,1.423,2.038,4.016,0.614,5.777l-21.04,26.046
			c-1.424,1.762-4.016,2.038-5.778,0.614l-9.74-7.869c-0.757-0.611-1.865-0.494-2.476,0.263c-0.61,0.756-0.492,1.866,0.263,2.476
			l9.741,7.869c3.272,2.644,8.086,2.132,10.73-1.141L42.977,16.6C45.618,13.329,45.108,8.515,41.834,5.872z"/>
	</g>
</g>
</svg>