<?xml version="1.0" encoding="UTF-8"?> 
<svg xmlns="http://www.w3.org/2000/svg" width="100" height="100" viewBox="0 0 100 100">
<g id="ae2ff353-31f6-4325-9fec-04001b3974dc" data-name="STAAD">
<path d="M18.52,83.84A115.09,115.09,0,0,1,34.85,78.1c.61-.17,1.24-.32,1.86-.48a122.77,122.77,0,0,1,16.59-3c.53-.06,1.07-.1,1.6-.15.87-.09,1.74-.16,2.6-.23a108.43,108.43,0,0,1,25.86,1A85.28,85.28,0,0,1,98,79a249.08,249.08,0,0,0-39.45,1.3A250.63,250.63,0,0,0,2,93,98.06,98.06,0,0,1,18.52,83.84Z" style="fill:white"></path>
<path d="M34.85,75.86l1.86-.48c3.55-.89,7.2-1.63,10.92-2.22V7L36.1,18.05,31.52,76.83C32.62,76.49,33.73,76.16,34.85,75.86Z" style="fill:white"></path>
<path d="M53.3,72.38c.53-.06,1.07-.1,1.6-.15.87-.09,1.74-.16,2.6-.23,3.6-.27,7.13-.36,10.58-.31L63.9,18.05,52.37,7V72.5C52.68,72.47,53,72.42,53.3,72.38Z" style="fill:white"></path>
<path d="M17.75,40.88,14,83.71q2.21-1.09,4.51-2.11c2.7-1.19,5.51-2.29,8.4-3.29l4-48.27Zm3.48-.74.81,13,4-16.6,3-2.36L23.12,57.76,21,58.67,18.83,41.79Zm1.66,38.38L22,67.59,18.61,80.11l-2.26.83,4.53-17.75,2.16-.8,2.12,15.29Zm4-18.94-10,3.89L17,61.69l10.09-4.17Z" style="fill:white"></path>
<path d="M82.25,40.88,69.11,30l3.44,41.82a102.69,102.69,0,0,1,10.81,1.19c.58.09,1.15.21,1.73.32Zm-7-4.47,2.26,2.38,4.19,14.66-2.49-.88L76.49,41.94l-1.56,9-2.32-.78ZM72.44,52.8l-.1-1.65,10,3.53.11,1.56Zm8.44,18.85L77.64,60.19,76.48,71l-2.31-.37L76.2,55l2.34.85L83.21,72Z" style="fill:white"></path>
</g>
</svg> 